<?xml version="1.0" encoding="UTF-8"?>
<svg xmlns="http://www.w3.org/2000/svg" xmlns:xlink="http://www.w3.org/1999/xlink" width="16pt" height="16pt" viewBox="0 0 16 16" version="1.1">
<g id="surface1">
<path style=" stroke:none;fill-rule:nonzero;fill:rgb(12.156863%,12.54902%,25.490196%);fill-opacity:0.25098;" d="M 8 10.824219 C 7.742188 10.824219 7.527344 10.613281 7.527344 10.351562 C 7.527344 8.542969 6.046875 7.058594 4.234375 7.058594 C 3.976562 7.058594 3.765625 6.847656 3.765625 6.589844 C 3.765625 6.328125 3.976562 6.117188 4.234375 6.117188 C 6.574219 6.117188 8.46875 8.011719 8.46875 10.351562 C 8.46875 10.613281 8.257812 10.824219 8 10.824219 Z M 8 10.824219 "/>
<path style=" stroke:none;fill-rule:nonzero;fill:rgb(12.156863%,12.54902%,25.490196%);fill-opacity:0.25098;" d="M 12.234375 6.589844 C 12.234375 6.847656 12.023438 7.058594 11.765625 7.058594 C 10.648438 7.058594 9.648438 7.625 9.058594 8.484375 C 8.929688 8.152344 8.777344 7.847656 8.589844 7.566406 C 9.363281 6.671875 10.507812 6.117188 11.765625 6.117188 C 12.023438 6.117188 12.234375 6.328125 12.234375 6.589844 Z M 12.234375 6.589844 "/>
<path style=" stroke:none;fill-rule:nonzero;fill:rgb(12.156863%,12.54902%,25.490196%);fill-opacity:0.25098;" d="M 8 16 C 3.589844 16 0 12.410156 0 8 C 0 3.589844 3.589844 0 8 0 C 12.410156 0 16 3.589844 16 8 C 16 12.410156 12.410156 16 8 16 Z M 8 0.941406 C 4.105469 0.941406 0.941406 4.105469 0.941406 8 C 0.941406 11.894531 4.105469 15.058594 8 15.058594 C 11.894531 15.058594 15.058594 11.894531 15.058594 8 C 15.058594 4.105469 11.894531 0.941406 8 0.941406 Z M 8 0.941406 "/>
</g>
</svg>
